<svg width="200" height="31" viewBox="0 0 200 31" fill="none" xmlns="http://www.w3.org/2000/svg">
<path d="M51.5797 24.3114C50.128 24.3114 48.9324 23.781 47.993 22.8085C46.9683 21.7476 46.5413 20.51 46.5413 19.0955C46.5413 17.681 47.0537 16.4433 47.993 15.3825C49.0178 14.3216 50.2133 13.8796 51.5797 13.8796C53.0315 13.8796 54.3124 14.41 55.2518 15.3825C56.2765 16.3549 56.7889 17.5926 56.7889 19.0955C56.7889 20.51 56.2765 21.7476 55.2518 22.8085C54.3124 23.8694 53.0315 24.3114 51.5797 24.3114ZM50.5549 8.39844C47.7368 8.39844 45.3457 9.4593 43.3816 11.4926C41.5028 13.5259 40.5635 16.0897 40.5635 19.0955C40.5635 22.1013 41.5028 24.665 43.3816 26.7867C45.2603 28.8201 47.6514 29.8809 50.5549 29.8809C53.5438 29.8809 55.9349 28.6433 56.5327 26.7867V29.5273H62.5105V8.75206H56.5327V11.4926C55.9349 9.63611 53.5438 8.39844 50.5549 8.39844Z" fill="#11DC62"/>
<path d="M78.3943 29.5272L87.0194 8.75195H80.9562L75.747 21.9243L70.4524 8.75195H64.4746L73.0997 29.5272H78.3943Z" fill="#11DC62"/>
<path d="M92.7413 16.7081C92.9121 14.7632 95.0471 13.2603 97.609 13.2603C100 13.2603 101.964 14.7632 101.964 16.7081H92.7413ZM86.6782 19.2718C86.6782 22.5428 87.7029 25.1066 89.6671 27.1399C91.7166 29.0848 94.3639 30.0573 97.609 30.0573C101.025 30.0573 103.928 28.8196 106.234 26.2559L102.733 22.8081C101.366 24.1341 99.7439 24.8414 97.8652 24.8414C94.7055 24.8414 92.656 23.2501 92.4852 20.7747H107.686C107.686 20.1559 107.771 19.5371 107.771 18.8298C107.771 15.824 106.832 13.3487 104.868 11.3154C102.989 9.28205 100.512 8.22119 97.4382 8.22119C94.2785 8.22119 91.6312 9.19365 89.6671 11.227C87.6175 13.1719 86.5928 15.824 86.5928 19.095V19.2718H86.6782Z" fill="#11DC62"/>
<path d="M116.824 29.5269V17.8574C116.824 15.382 118.531 13.7023 120.752 13.7023C123.143 13.7023 124.424 15.2052 124.424 17.5921V29.4384H130.402V16.8849C130.402 11.4922 127.584 8.22119 122.716 8.22119C119.983 8.22119 117.677 9.45886 116.824 11.3154V8.75162H110.846V29.5269H116.824Z" fill="#11DC62"/>
<path d="M139.283 16.7081C139.454 14.7632 141.589 13.2603 144.151 13.2603C146.542 13.2603 148.506 14.7632 148.506 16.7081H139.283ZM133.22 19.2718C133.22 22.5428 134.244 25.1066 136.209 27.1399C138.258 29.0848 140.905 30.0573 144.151 30.0573C147.566 30.0573 150.47 28.8196 152.776 26.2559L149.274 22.8081C147.908 24.1341 146.285 24.8414 144.407 24.8414C141.247 24.8414 139.197 23.2501 139.027 20.7747H154.227C154.227 20.1559 154.313 19.5371 154.313 18.8298C154.313 15.824 153.373 13.3487 151.409 11.3154C149.531 9.28205 147.054 8.22119 143.98 8.22119C140.82 8.22119 138.173 9.19365 136.209 11.227C134.159 13.1719 133.134 15.824 133.134 19.095V19.2718H133.22Z" fill="#11DC62"/>
<path d="M164.474 29.5276V14.3219H168.915V8.75237H164.474V0.795898H158.667V8.75237H156.02V14.3219H158.667V29.5276H164.474Z" fill="#11DC62"/>
<path d="M171.477 29.5274H177.455V8.75212H171.477V29.5274ZM171.05 3.53621C171.05 5.48113 172.587 6.98402 174.466 6.98402C176.345 6.98402 177.882 5.48113 177.882 3.53621C177.882 1.59129 176.345 0 174.466 0C172.587 0 171.05 1.50289 171.05 3.53621Z" fill="#11DC62"/>
<path d="M191.631 8.04492C188.557 8.04492 185.91 9.10578 183.775 11.2275C181.64 13.3492 180.615 15.913 180.615 19.0956C180.615 22.1898 181.725 24.8419 183.775 26.9637C185.91 29.0854 188.557 30.0578 191.631 30.0578C194.962 30.0578 197.695 28.8202 200 26.168L196.243 22.3666C194.962 23.7811 193.425 24.4883 191.631 24.4883C188.728 24.4883 186.508 22.1898 186.508 19.0956C186.508 16.0014 188.728 13.6145 191.631 13.6145C193.425 13.6145 194.962 14.3217 196.243 15.7362L200 11.9348C197.695 9.371 194.962 8.04492 191.631 8.04492Z" fill="#11DC62"/>
<path d="M6.06319 21.5711H0L6.40478 0.795898H11.187L16.14 18.3886L21.1785 0.795898H25.9607L30.9137 18.3886L33.8172 8.75238H39.8804L33.8172 29.5276H28.608L23.5696 12.377L18.4458 29.5276H13.8343L8.7959 12.377L6.06319 21.5711Z" fill="#11DC62"/>
</svg>
