<svg width="188" height="30" viewBox="0 0 188 30" fill="none" xmlns="http://www.w3.org/2000/svg">
<path d="M48.856 23.7023C47.495 23.7023 46.3742 23.205 45.4935 22.2934C44.5328 21.2988 44.1325 20.1385 44.1325 18.8124C44.1325 17.4863 44.6129 16.326 45.4935 15.3315C46.4542 14.3369 47.5751 13.9225 48.856 13.9225C50.217 13.9225 51.4179 14.4198 52.2986 15.3315C53.2593 16.2431 53.7397 17.4035 53.7397 18.8124C53.7397 20.1385 53.2593 21.2988 52.2986 22.2934C51.4179 23.2879 50.217 23.7023 48.856 23.7023ZM47.8953 8.78394C45.2533 8.78394 43.0117 9.7785 41.1703 11.6847C39.409 13.591 38.5283 15.9945 38.5283 18.8124C38.5283 21.6303 39.409 24.0338 41.1703 26.023C42.9316 27.9292 45.1733 28.9238 47.8953 28.9238C50.6974 28.9238 52.9391 27.7634 53.4995 26.023V28.5922H59.1037V9.11546H53.4995V11.6847C52.9391 9.94425 50.6974 8.78394 47.8953 8.78394Z" fill="white"/>
<path d="M73.9946 28.592L82.0806 9.11523H76.3964L71.5127 21.4643L66.549 9.11523H60.9448L69.0309 28.592H73.9946Z" fill="white"/>
<path d="M87.4449 16.5741C87.6051 14.7508 89.6066 13.3418 92.0083 13.3418C94.25 13.3418 96.0914 14.7508 96.0914 16.5741H87.4449ZM81.7607 18.9777C81.7607 22.0442 82.7214 24.4477 84.5628 26.354C86.4842 28.1773 88.9661 29.089 92.0083 29.089C95.2107 29.089 97.9328 27.9287 100.094 25.5252L96.8119 22.2929C95.531 23.5361 94.0098 24.1991 92.2485 24.1991C89.2863 24.1991 87.3649 22.7073 87.2048 20.3866H101.455C101.455 19.8065 101.535 19.2263 101.535 18.5633C101.535 15.7453 100.655 13.4247 98.8134 11.5185C97.0521 9.61223 94.7304 8.61768 91.8482 8.61768C88.886 8.61768 86.4042 9.52935 84.5628 11.4356C82.6414 13.2589 81.6807 15.7453 81.6807 18.8119V18.9777H81.7607Z" fill="white"/>
<path d="M110.022 28.5917V17.6516C110.022 15.3309 111.623 13.7562 113.705 13.7562C115.947 13.7562 117.147 15.1652 117.147 17.4029V28.5089H122.752V16.7399C122.752 11.6842 120.11 8.61768 115.546 8.61768C112.984 8.61768 110.823 9.77799 110.022 11.5185V9.11495H104.418V28.5917H110.022Z" fill="white"/>
<path d="M131.078 16.5741C131.238 14.7508 133.239 13.3418 135.641 13.3418C137.883 13.3418 139.724 14.7508 139.724 16.5741H131.078ZM125.394 18.9777C125.394 22.0442 126.354 24.4477 128.196 26.354C130.117 28.1773 132.599 29.089 135.641 29.089C138.844 29.089 141.566 27.9287 143.727 25.5252L140.445 22.2929C139.164 23.5361 137.643 24.1991 135.881 24.1991C132.919 24.1991 130.998 22.7073 130.838 20.3866H145.088C145.088 19.8065 145.168 19.2263 145.168 18.5633C145.168 15.7453 144.288 13.4247 142.446 11.5185C140.685 9.61223 138.363 8.61768 135.481 8.61768C132.519 8.61768 130.037 9.52935 128.196 11.4356C126.274 13.2589 125.313 15.7453 125.313 18.8119V18.9777H125.394Z" fill="white"/>
<path d="M154.694 28.5925V14.3371H158.858V9.11569H154.694V1.65649H149.25V9.11569H146.769V14.3371H149.25V28.5925H154.694Z" fill="white"/>
<path d="M161.26 28.5923H166.864V9.11551H161.26V28.5923ZM160.859 4.2256C160.859 6.04896 162.3 7.45791 164.062 7.45791C165.823 7.45791 167.264 6.04896 167.264 4.2256C167.264 2.40224 165.823 0.9104 164.062 0.9104C162.3 0.9104 160.859 2.31936 160.859 4.2256Z" fill="white"/>
<path d="M180.154 8.45264C177.272 8.45264 174.79 9.4472 172.788 11.4363C170.787 13.4254 169.826 15.829 169.826 18.8126C169.826 21.7134 170.867 24.1998 172.788 26.1889C174.79 28.1781 177.272 29.0897 180.154 29.0897C183.276 29.0897 185.838 27.9294 188 25.443L184.477 21.8792C183.276 23.2053 181.835 23.8683 180.154 23.8683C177.432 23.8683 175.35 21.7134 175.35 18.8126C175.35 15.9118 177.432 13.6741 180.154 13.6741C181.835 13.6741 183.276 14.3371 184.477 15.6632L188 12.0994C185.838 9.69584 183.276 8.45264 180.154 8.45264Z" fill="white"/>
<path d="M6.18424 21.1333H0.5L6.50448 1.65649H10.9878L15.6313 18.1496L20.3548 1.65649H24.8382L29.4816 18.1496L32.2037 9.11569H37.8879L32.2037 28.5925H27.32L22.5965 12.5138L17.7929 28.5925H13.4697L8.74615 12.5138L6.18424 21.1333Z" fill="white"/>
</svg>
